<svg version="1.2" xmlns="http://www.w3.org/2000/svg" viewBox="0 0 58 58" width="58" height="58"><defs><clipPath clipPathUnits="userSpaceOnUse" id="cp1"><path d="m-745-846h1440v1137h-1440z"/></clipPath></defs><style>.a{fill:#c9c9c9}.b{fill:#fff}</style><g clip-path="url(#cp1)"><path class="a" d="m29 58c16 0 29-13 29-29 0-16-13-29-29-29-16 0-29 13-29 29 0 16 13 29 29 29z"/><path class="b" d="m29 30c-2.2 0-4-1.8-4-4v-1c0-2.2 1.8-4 4-4 2.2 0 4 1.8 4 4v1c0 2.2-1.8 4-4 4z"/><path class="b" d="m31 32h-4c-2.8 0-5 2.2-5 5h14c0-2.8-2.2-5-5-5z"/></g></svg>